<svg xmlns="http://www.w3.org/2000/svg" xmlns:xlink="http://www.w3.org/1999/xlink" viewBox="0 0 200 200"><defs><style>.cls-1,.cls-12,.cls-13,.cls-14,.cls-18,.cls-19,.cls-24{fill:none;}.cls-15,.cls-17,.cls-2,.cls-20,.cls-21{fill:#fff;}.cls-18,.cls-19,.cls-2,.cls-20,.cls-21{stroke:#fff;}.cls-12,.cls-13,.cls-14,.cls-18,.cls-19,.cls-2,.cls-21,.cls-24{stroke-miterlimit:10;}.cls-18,.cls-19,.cls-2{stroke-width:1.28px;}.cls-2{clip-rule:evenodd;}.cls-3{isolation:isolate;}.cls-4{clip-path:url(#clip-path);}.cls-5{fill:#cde8d4;}.cls-6{fill:#010101;}.cls-7{clip-path:url(#clip-path-2);}.cls-8{fill:#1ab473;}.cls-9{clip-path:url(#clip-path-3);}.cls-10{fill:#bf8a61;}.cls-11{fill:#ad6a58;opacity:0.56;mix-blend-mode:multiply;}.cls-12,.cls-14{stroke:#010101;}.cls-12,.cls-13,.cls-14,.cls-21,.cls-24{stroke-linecap:round;}.cls-12,.cls-13{stroke-width:2.47px;}.cls-13{stroke:#b52a28;}.cls-14,.cls-24{stroke-width:3.71px;}.cls-15,.cls-19{fill-rule:evenodd;}.cls-16{clip-path:url(#clip-path-4);}.cls-20{stroke-linejoin:round;}.cls-20,.cls-21{stroke-width:2.38px;}.cls-22{clip-path:url(#clip-path-6);}.cls-23{clip-path:url(#clip-path-7);}.cls-24{stroke:#a31e21;}</style><clipPath id="clip-path"><circle class="cls-1" cx="100" cy="100" r="100"/></clipPath><clipPath id="clip-path-2"><path class="cls-1" d="M259.52,296.13c-6.14-20.81-14.34-40.87-22.09-61.12-4.87-12.72-9.78-25.53-17-37.07-4.87-7.78-11-15.83-18.76-20.94s-17.14-8.18-26.28-10.3c-5.62-1.3-11.3-2.29-17-3.34-1.51,2.32-2.85,5-5.08,7.22C125,191.83,76.38,195,54.8,164.06c-8.21,1.33-16.45,2.49-24.14,5.58-11.95,4.81-21.72,14-29.11,24.58S-11.06,216.66-16,228.55q-16.66,40.05-30,81.38-5.34,16.54-10.42,33c13.78,5.13,27.47,9.54,40.31,14.74,1.12-3.17,2.17-6.35,3.1-9.57,2.06-7.17,1.89-14.22,4.78-21.11q17.15-40.8,34.28-81.62c.38,14.28,2.85,28.13,5.49,42.17q5,26.82,10.09,53.63c-.13.13.55.39.42.52H175Q182.1,291.56,185.2,241c13.72,31.31,27,62.36,40.73,93.67,3.63,8.28,3.63,17.6,6.62,26.13.63,1.8,1.32,3.57,2,5.33,13.32-4.49,27.26-7.79,40.74-12.6C270.3,334.33,265.14,315.16,259.52,296.13Z"/></clipPath><clipPath id="clip-path-3"><path class="cls-1" d="M153.34,170.58c2.23-2.23,3.57-4.9,5.08-7.22-4.43-.82-8.87-1.67-13.25-2.72-3.67-.88-7.41-1.95-10.42-4.22-5.46-4.12-4.53-9.47-4.18-15.49a20.62,20.62,0,0,1-8.45-4,18.35,18.35,0,0,1-5.74-10.19,24,24,0,0,1,5.84-21A18.45,18.45,0,0,0,138.09,92a11.06,11.06,0,0,0,.12-5.27,8.23,8.23,0,0,0-5.6-5.82,9,9,0,0,0-8.19,2.19,125.22,125.22,0,0,1-29.89-30.3,101.72,101.72,0,0,1-37.62,17c-.61,7.67-.3,15.51-.73,23.19-.24,4.33-.49,8.66-.57,13-.09,5.06.07,10.24,1.93,14.94,4,10.29,15.5,16.06,26.53,16.84.21,6.84,1,13.36-4.73,18.33-3.47,3-8,4.58-12.45,5.68-4,1-8,1.68-12.09,2.33C76.38,195,125,191.83,153.34,170.58Z"/></clipPath><clipPath id="clip-path-4"><path class="cls-2" d="M55.57,105.29c3.55-5.15,16.83-10.44,19.83-10.44q3,0,28.8,5.29-7,19.55,3.76,31.36c-8.78,4.82-19.22,7.61-30,5.54S55,129.72,55.57,105.29Z"/></clipPath><clipPath id="clip-path-6"><circle class="cls-1" cx="100" cy="-160.35" r="100"/></clipPath><clipPath id="clip-path-7"><path class="cls-1" d="M259.52,35.78C253.38,15,245.18-5.08,237.43-25.34c-4.87-12.72-9.78-25.53-17-37.07-4.87-7.78-11-15.82-18.76-20.94s-17.14-8.18-26.28-10.3c-5.62-1.29-11.3-2.29-17-3.34-1.51,2.32-2.85,5-5.08,7.22C125-68.51,76.38-65.32,54.8-96.28,46.59-95,38.35-93.8,30.66-90.71c-11.95,4.82-21.72,14-29.11,24.59S-11.06-43.69-16-31.79q-16.66,40-30,81.38-5.34,16.53-10.42,33c13.78,5.13,27.47,9.53,40.31,14.73C-15,94.15-13.93,91-13,87.74c2.06-7.17,1.89-14.21,4.78-21.1L26.06-15c.38,14.27,2.85,28.13,5.49,42.16q5,26.82,10.09,53.63c-.13.13.55.4.42.52H175Q182.1,31.22,185.2-19.34C198.92,12,212.21,43,225.93,74.34c3.63,8.28,3.63,17.6,6.62,26.13.63,1.79,1.32,3.56,2,5.33,13.32-4.5,27.26-7.79,40.74-12.61C270.3,74,265.14,54.82,259.52,35.78Z"/></clipPath></defs><g class="cls-3"><g id="Layer_1" data-name="Layer 1"><g class="cls-4"><rect class="cls-5" x="-33.84" y="-28.41" width="259.06" height="259.06"/><path id="Hair_Back" data-name="Hair Back" class="cls-6" d="M91,141.52c-12.51.76-25.05.58-37.78.58h-1c0,.07-.16,0-.16,0-6.33-.24-12.79-.81-18.47-3.6S23,131,21.16,124.9C18.38,116,22.75,106,29.74,99.81c1.86-1.65,3.92-3.13,5.37-5.16,3.2-4.48,2.7-10.5,3.83-15.89a25.81,25.81,0,0,1,7.57-13.41c2.63-2.45,5.79-4.37,8-7.19s3.25-6,4.79-9.11A41.63,41.63,0,0,1,77.57,31.16c7.69-4,16.59-5.75,25.24-6,15.69-.48,32.31,4.05,42.82,15.7a51.09,51.09,0,0,1,7.52,11.2,72.49,72.49,0,0,1,6.51,18.65c.89,4.43,1.38,9,3.16,13.14,3.38,7.85,11,13.3,14.29,21.18,2.93,7,2.12,15-.66,22a25.56,25.56,0,0,1-5.06,8.33c-3.91,4.09-9.52,6.15-15.09,7.16-6.34,1.16-12.58.66-19-.32a46.19,46.19,0,0,1-10.24-2.39,17,17,0,0,1-4.75-2.69c-1.19-1-4,.77-5.59,1.09A181.64,181.64,0,0,1,91,141.52Z"/><g id="Shirt"><g class="cls-7"><path class="cls-8" d="M259.52,296.13c-6.14-20.81-14.34-40.87-22.09-61.12-4.87-12.72-9.78-25.53-17-37.07-4.87-7.78-11-15.83-18.76-20.94s-17.14-8.18-26.28-10.3c-5.62-1.3-11.3-2.29-17-3.34-1.51,2.32-2.85,5-5.08,7.22C125,191.83,76.38,195,54.8,164.06c-8.21,1.33-16.45,2.49-24.14,5.58-11.95,4.81-21.72,14-29.11,24.58S-11.06,216.66-16,228.55q-16.66,40.05-30,81.38-5.34,16.54-10.42,33c13.78,5.13,27.47,9.54,40.31,14.74,1.12-3.17,2.17-6.35,3.1-9.57,2.06-7.17,1.89-14.22,4.78-21.11q17.15-40.8,34.28-81.62c.38,14.28,2.85,28.13,5.49,42.17q5,26.82,10.09,53.63c-.13.13.55.39.42.52H175Q182.1,291.56,185.2,241c13.72,31.31,27,62.36,40.73,93.67,3.63,8.28,3.63,17.6,6.62,26.13.63,1.8,1.32,3.57,2,5.33,13.32-4.49,27.26-7.79,40.74-12.6C270.3,334.33,265.14,315.16,259.52,296.13Z"/></g></g><g id="Head"><g class="cls-9"><path class="cls-10" d="M153.34,170.58c2.23-2.23,3.57-4.9,5.08-7.22-4.43-.82-8.87-1.67-13.25-2.72-3.67-.88-7.41-1.95-10.42-4.22-5.46-4.12-4.53-9.47-4.18-15.49a20.62,20.62,0,0,1-8.45-4,18.35,18.35,0,0,1-5.74-10.19,24,24,0,0,1,5.84-21A18.45,18.45,0,0,0,138.09,92a11.06,11.06,0,0,0,.12-5.27,8.23,8.23,0,0,0-5.6-5.82,9,9,0,0,0-8.19,2.19,125.22,125.22,0,0,1-29.89-30.3,101.72,101.72,0,0,1-37.62,17c-.61,7.67-.3,15.51-.73,23.19-.24,4.33-.49,8.66-.57,13-.09,5.06.07,10.24,1.93,14.94,4,10.29,15.5,16.06,26.53,16.84.21,6.84,1,13.36-4.73,18.33-3.47,3-8,4.58-12.45,5.68-4,1-8,1.68-12.09,2.33C76.38,195,125,191.83,153.34,170.58Z"/><polygon class="cls-11" points="83 137.62 102.2 137.62 81.79 149.15 83 137.62"/><rect class="cls-6" x="97.9" y="85.34" width="3.34" height="10.04" rx="1.67"/><rect class="cls-6" x="64.16" y="85.34" width="3.34" height="10.04" rx="1.67"/><path class="cls-12" d="M77.8,102a10.81,10.81,0,0,1-2.79-.83c-2.35-1.2-2.2-3.4-.49-5.14a46.5,46.5,0,0,1,5-4.7"/><path class="cls-13" d="M74.79,109.27a23,23,0,0,0,12.91-2.72"/><path class="cls-14" d="M91.88,73.39a41.12,41.12,0,0,1,16.46.6"/><path class="cls-14" d="M71.62,73.68a40.89,40.89,0,0,0-16.45.6"/></g></g><g class="cls-3"><path class="cls-15" d="M55.57,105.29c3.55-5.15,16.83-10.44,19.83-10.44q3,0,28.8,5.29-7,19.55,3.76,31.36c-8.78,4.82-19.22,7.61-30,5.54S55,129.72,55.57,105.29Z"/><g class="cls-16"><rect class="cls-17" x="53.17" y="82.94" width="71.47" height="57.17"/><rect class="cls-18" x="53.17" y="82.94" width="71.47" height="57.17"/></g><path class="cls-19" d="M55.57,105.29c3.55-5.15,16.83-10.44,19.83-10.44q3,0,28.8,5.29-7,19.55,3.76,31.36c-8.78,4.82-19.22,7.61-30,5.54S55,129.72,55.57,105.29Z"/><path class="cls-20" d="M55.57,105.29c3.55-5.15,16.83-10.44,19.83-10.44q3,0,28.8,5.29-7,19.55,3.76,31.36c-8.78,4.82-19.22,7.61-30,5.54S55,129.72,55.57,105.29Z"/></g><path class="cls-8" d="M84,147.28a13.46,13.46,0,0,1-4.64,8.77c-3.47,3-8,4.58-12.45,5.68-4,1-8,1.68-12.09,2.33,21.58,31,70.19,27.77,98.54,6.52,2.23-2.23,3.57-4.9,5.08-7.22-4.43-.82-8.87-1.67-13.25-2.72-3.67-.88-7.41-1.95-10.42-4.22a10.66,10.66,0,0,1-4.43-8.52S120.16,152,104.69,152,84,147.28,84,147.28Z"/><g class="cls-9"><line class="cls-21" x1="104.2" y1="100.14" x2="124.43" y2="81.37"/></g><path class="cls-17" d="M108.55,132.53l-1.18-2.07c8.81-5,12.64-18.57,13.8-23.49a2.72,2.72,0,0,1,1-1.25l1.68-.18C123.76,106.37,120.34,125.79,108.55,132.53Z"/></g><g class="cls-22"><g id="Shirt-2" data-name="Shirt"><g class="cls-23"><path class="cls-8" d="M259.52,35.78C253.38,15,245.18-5.08,237.43-25.34c-4.87-12.72-9.78-25.53-17-37.07-4.87-7.78-11-15.82-18.76-20.94s-17.14-8.18-26.28-10.3c-5.62-1.29-11.3-2.29-17-3.34-1.51,2.32-2.85,5-5.08,7.22C125-68.51,76.38-65.32,54.8-96.28,46.59-95,38.35-93.8,30.66-90.71c-11.95,4.82-21.72,14-29.11,24.59S-11.06-43.69-16-31.79q-16.66,40-30,81.38-5.34,16.53-10.42,33c13.78,5.13,27.47,9.53,40.31,14.73C-15,94.15-13.93,91-13,87.74c2.06-7.17,1.89-14.21,4.78-21.1L26.06-15c.38,14.27,2.85,28.13,5.49,42.16q5,26.82,10.09,53.63c-.13.13.55.4.42.52H175Q182.1,31.22,185.2-19.34C198.92,12,212.21,43,225.93,74.34c3.63,8.28,3.63,17.6,6.62,26.13.63,1.79,1.32,3.56,2,5.33,13.32-4.5,27.26-7.79,40.74-12.61C270.3,74,265.14,54.82,259.52,35.78Z"/><path class="cls-24" d="M26.19,7.1a118,118,0,0,1,5.08-64"/></g></g></g></g></g></svg>